<svg xmlns="http://www.w3.org/2000/svg" viewBox="0 0 1200 675" preserveAspectRatio="xMidYMid slice">
<rect width="1200" height="675" fill="#0B0B0D"/>
<circle cx="80" cy="75" r="1.3" fill="#17171A"/><circle cx="80" cy="150" r="1.3" fill="#17171A"/><circle cx="80" cy="225" r="1.3" fill="#17171A"/><circle cx="80" cy="300" r="1.3" fill="#17171A"/><circle cx="80" cy="375" r="1.3" fill="#17171A"/><circle cx="80" cy="450" r="1.3" fill="#17171A"/><circle cx="80" cy="525" r="1.3" fill="#17171A"/><circle cx="80" cy="600" r="1.3" fill="#17171A"/><circle cx="160" cy="75" r="1.3" fill="#17171A"/><circle cx="160" cy="150" r="1.3" fill="#17171A"/><circle cx="160" cy="225" r="1.3" fill="#17171A"/><circle cx="160" cy="300" r="1.3" fill="#17171A"/><circle cx="160" cy="375" r="1.3" fill="#17171A"/><circle cx="160" cy="450" r="1.3" fill="#17171A"/><circle cx="160" cy="525" r="1.3" fill="#17171A"/><circle cx="160" cy="600" r="1.3" fill="#17171A"/><circle cx="240" cy="75" r="1.3" fill="#17171A"/><circle cx="240" cy="150" r="1.3" fill="#17171A"/><circle cx="240" cy="225" r="1.3" fill="#17171A"/><circle cx="240" cy="300" r="1.3" fill="#17171A"/><circle cx="240" cy="375" r="1.3" fill="#17171A"/><circle cx="240" cy="450" r="1.3" fill="#17171A"/><circle cx="240" cy="525" r="1.3" fill="#17171A"/><circle cx="240" cy="600" r="1.3" fill="#17171A"/><circle cx="320" cy="75" r="1.3" fill="#17171A"/><circle cx="320" cy="150" r="1.3" fill="#17171A"/><circle cx="320" cy="225" r="1.3" fill="#17171A"/><circle cx="320" cy="300" r="1.3" fill="#17171A"/><circle cx="320" cy="375" r="1.3" fill="#17171A"/><circle cx="320" cy="450" r="1.3" fill="#17171A"/><circle cx="320" cy="525" r="1.3" fill="#17171A"/><circle cx="320" cy="600" r="1.3" fill="#17171A"/><circle cx="400" cy="75" r="1.3" fill="#17171A"/><circle cx="400" cy="150" r="1.3" fill="#17171A"/><circle cx="400" cy="225" r="1.3" fill="#17171A"/><circle cx="400" cy="300" r="1.3" fill="#17171A"/><circle cx="400" cy="375" r="1.3" fill="#17171A"/><circle cx="400" cy="450" r="1.3" fill="#17171A"/><circle cx="400" cy="525" r="1.3" fill="#17171A"/><circle cx="400" cy="600" r="1.3" fill="#17171A"/><circle cx="480" cy="75" r="1.3" fill="#17171A"/><circle cx="480" cy="150" r="1.3" fill="#17171A"/><circle cx="480" cy="225" r="1.3" fill="#17171A"/><circle cx="480" cy="300" r="1.3" fill="#17171A"/><circle cx="480" cy="375" r="1.3" fill="#17171A"/><circle cx="480" cy="450" r="1.3" fill="#17171A"/><circle cx="480" cy="525" r="1.3" fill="#17171A"/><circle cx="480" cy="600" r="1.3" fill="#17171A"/><circle cx="560" cy="75" r="1.3" fill="#17171A"/><circle cx="560" cy="150" r="1.3" fill="#17171A"/><circle cx="560" cy="225" r="1.3" fill="#17171A"/><circle cx="560" cy="300" r="1.3" fill="#17171A"/><circle cx="560" cy="375" r="1.3" fill="#17171A"/><circle cx="560" cy="450" r="1.3" fill="#17171A"/><circle cx="560" cy="525" r="1.3" fill="#17171A"/><circle cx="560" cy="600" r="1.3" fill="#17171A"/><circle cx="640" cy="75" r="1.3" fill="#17171A"/><circle cx="640" cy="150" r="1.3" fill="#17171A"/><circle cx="640" cy="225" r="1.3" fill="#17171A"/><circle cx="640" cy="300" r="1.3" fill="#17171A"/><circle cx="640" cy="375" r="1.3" fill="#17171A"/><circle cx="640" cy="450" r="1.3" fill="#17171A"/><circle cx="640" cy="525" r="1.3" fill="#17171A"/><circle cx="640" cy="600" r="1.3" fill="#17171A"/><circle cx="720" cy="75" r="1.3" fill="#17171A"/><circle cx="720" cy="150" r="1.3" fill="#17171A"/><circle cx="720" cy="225" r="1.3" fill="#17171A"/><circle cx="720" cy="300" r="1.3" fill="#17171A"/><circle cx="720" cy="375" r="1.3" fill="#17171A"/><circle cx="720" cy="450" r="1.3" fill="#17171A"/><circle cx="720" cy="525" r="1.3" fill="#17171A"/><circle cx="720" cy="600" r="1.3" fill="#17171A"/><circle cx="800" cy="75" r="1.3" fill="#17171A"/><circle cx="800" cy="150" r="1.3" fill="#17171A"/><circle cx="800" cy="225" r="1.3" fill="#17171A"/><circle cx="800" cy="300" r="1.3" fill="#17171A"/><circle cx="800" cy="375" r="1.3" fill="#17171A"/><circle cx="800" cy="450" r="1.3" fill="#17171A"/><circle cx="800" cy="525" r="1.3" fill="#17171A"/><circle cx="800" cy="600" r="1.3" fill="#17171A"/><circle cx="880" cy="75" r="1.3" fill="#17171A"/><circle cx="880" cy="150" r="1.3" fill="#17171A"/><circle cx="880" cy="225" r="1.3" fill="#17171A"/><circle cx="880" cy="300" r="1.3" fill="#17171A"/><circle cx="880" cy="375" r="1.3" fill="#17171A"/><circle cx="880" cy="450" r="1.3" fill="#17171A"/><circle cx="880" cy="525" r="1.3" fill="#17171A"/><circle cx="880" cy="600" r="1.3" fill="#17171A"/><circle cx="960" cy="75" r="1.3" fill="#17171A"/><circle cx="960" cy="150" r="1.3" fill="#17171A"/><circle cx="960" cy="225" r="1.3" fill="#17171A"/><circle cx="960" cy="300" r="1.3" fill="#17171A"/><circle cx="960" cy="375" r="1.3" fill="#17171A"/><circle cx="960" cy="450" r="1.3" fill="#17171A"/><circle cx="960" cy="525" r="1.3" fill="#17171A"/><circle cx="960" cy="600" r="1.3" fill="#17171A"/><circle cx="1040" cy="75" r="1.3" fill="#17171A"/><circle cx="1040" cy="150" r="1.3" fill="#17171A"/><circle cx="1040" cy="225" r="1.3" fill="#17171A"/><circle cx="1040" cy="300" r="1.3" fill="#17171A"/><circle cx="1040" cy="375" r="1.3" fill="#17171A"/><circle cx="1040" cy="450" r="1.3" fill="#17171A"/><circle cx="1040" cy="525" r="1.3" fill="#17171A"/><circle cx="1040" cy="600" r="1.3" fill="#17171A"/><circle cx="1120" cy="75" r="1.3" fill="#17171A"/><circle cx="1120" cy="150" r="1.3" fill="#17171A"/><circle cx="1120" cy="225" r="1.3" fill="#17171A"/><circle cx="1120" cy="300" r="1.3" fill="#17171A"/><circle cx="1120" cy="375" r="1.3" fill="#17171A"/><circle cx="1120" cy="450" r="1.3" fill="#17171A"/><circle cx="1120" cy="525" r="1.3" fill="#17171A"/><circle cx="1120" cy="600" r="1.3" fill="#17171A"/>
<g stroke="#1A1A1C" stroke-width="1">
  <line x1="0" y1="60" x2="1200" y2="60"/><line x1="0" y1="615" x2="1200" y2="615"/>
</g>

<g fill="none" stroke-linecap="round">
  <path d="M120 210 q220 -80 430 0 q80 30 60 80 q-18 44 -70 26" stroke="#8A6FB8" stroke-width="3"/>
  <path d="M170 330 q260 -70 520 0 q95 26 78 78 q-15 46 -72 30" stroke="#FFFFFF" stroke-width="2.5"/>
  <path d="M120 445 q200 -55 400 0" stroke="#C9BCE0" stroke-width="2" stroke-dasharray="3 10"/>
</g>
<path d="M0 560 Q300 470 620 545 T1200 520 V675 H0 Z" fill="#6B4E9B" opacity="0.6"/>
<g fill="none" stroke="#C9BCE0" stroke-width="2.5">
  <path d="M950 300 q0 -46 38 -78 q38 32 38 78 a38 38 0 0 1 -76 0"/>
  <path d="M1030 420 q0 -34 28 -58 q28 24 28 58 a28 28 0 0 1 -56 0"/>
</g>
<path d="M620 537 L628 545 L620 553 L612 545 Z" fill="#FFFFFF"/>

<g stroke="#6B4E9B" stroke-width="2">
  <path d="M40 40 h26 M40 40 v26" fill="none"/><path d="M1160 40 h-26 M1160 40 v26" fill="none"/>
  <path d="M40 635 h26 M40 635 v-26" fill="none"/><path d="M1160 635 h-26 M1160 635 v-26" fill="none"/>
</g>
<text x="1148" y="52" text-anchor="end" font-family="monospace" font-size="19" letter-spacing="4" fill="#6E6E73">KW · ENVIRONMENT</text>
<g transform="translate(52,623)">
  <path d="M0 -7 L7 0 L0 7 L-7 0 Z" fill="#6B4E9B" transform="translate(7,0)"/>
  <line x1="24" y1="0" x2="120" y2="0" stroke="#1A1A1C" stroke-width="1"/>
</g>
</svg>