<svg xmlns="http://www.w3.org/2000/svg" viewBox="0 0 1200 675" preserveAspectRatio="xMidYMid slice">
<rect width="1200" height="675" fill="#0B0B0D"/>
<circle cx="80" cy="75" r="1.3" fill="#17171A"/><circle cx="80" cy="150" r="1.3" fill="#17171A"/><circle cx="80" cy="225" r="1.3" fill="#17171A"/><circle cx="80" cy="300" r="1.3" fill="#17171A"/><circle cx="80" cy="375" r="1.3" fill="#17171A"/><circle cx="80" cy="450" r="1.3" fill="#17171A"/><circle cx="80" cy="525" r="1.3" fill="#17171A"/><circle cx="80" cy="600" r="1.3" fill="#17171A"/><circle cx="160" cy="75" r="1.3" fill="#17171A"/><circle cx="160" cy="150" r="1.3" fill="#17171A"/><circle cx="160" cy="225" r="1.3" fill="#17171A"/><circle cx="160" cy="300" r="1.3" fill="#17171A"/><circle cx="160" cy="375" r="1.3" fill="#17171A"/><circle cx="160" cy="450" r="1.3" fill="#17171A"/><circle cx="160" cy="525" r="1.3" fill="#17171A"/><circle cx="160" cy="600" r="1.3" fill="#17171A"/><circle cx="240" cy="75" r="1.3" fill="#17171A"/><circle cx="240" cy="150" r="1.3" fill="#17171A"/><circle cx="240" cy="225" r="1.3" fill="#17171A"/><circle cx="240" cy="300" r="1.3" fill="#17171A"/><circle cx="240" cy="375" r="1.3" fill="#17171A"/><circle cx="240" cy="450" r="1.3" fill="#17171A"/><circle cx="240" cy="525" r="1.3" fill="#17171A"/><circle cx="240" cy="600" r="1.3" fill="#17171A"/><circle cx="320" cy="75" r="1.3" fill="#17171A"/><circle cx="320" cy="150" r="1.3" fill="#17171A"/><circle cx="320" cy="225" r="1.3" fill="#17171A"/><circle cx="320" cy="300" r="1.3" fill="#17171A"/><circle cx="320" cy="375" r="1.3" fill="#17171A"/><circle cx="320" cy="450" r="1.3" fill="#17171A"/><circle cx="320" cy="525" r="1.3" fill="#17171A"/><circle cx="320" cy="600" r="1.3" fill="#17171A"/><circle cx="400" cy="75" r="1.3" fill="#17171A"/><circle cx="400" cy="150" r="1.3" fill="#17171A"/><circle cx="400" cy="225" r="1.3" fill="#17171A"/><circle cx="400" cy="300" r="1.3" fill="#17171A"/><circle cx="400" cy="375" r="1.3" fill="#17171A"/><circle cx="400" cy="450" r="1.3" fill="#17171A"/><circle cx="400" cy="525" r="1.3" fill="#17171A"/><circle cx="400" cy="600" r="1.3" fill="#17171A"/><circle cx="480" cy="75" r="1.3" fill="#17171A"/><circle cx="480" cy="150" r="1.3" fill="#17171A"/><circle cx="480" cy="225" r="1.3" fill="#17171A"/><circle cx="480" cy="300" r="1.3" fill="#17171A"/><circle cx="480" cy="375" r="1.3" fill="#17171A"/><circle cx="480" cy="450" r="1.3" fill="#17171A"/><circle cx="480" cy="525" r="1.3" fill="#17171A"/><circle cx="480" cy="600" r="1.3" fill="#17171A"/><circle cx="560" cy="75" r="1.3" fill="#17171A"/><circle cx="560" cy="150" r="1.3" fill="#17171A"/><circle cx="560" cy="225" r="1.3" fill="#17171A"/><circle cx="560" cy="300" r="1.3" fill="#17171A"/><circle cx="560" cy="375" r="1.3" fill="#17171A"/><circle cx="560" cy="450" r="1.3" fill="#17171A"/><circle cx="560" cy="525" r="1.3" fill="#17171A"/><circle cx="560" cy="600" r="1.3" fill="#17171A"/><circle cx="640" cy="75" r="1.3" fill="#17171A"/><circle cx="640" cy="150" r="1.3" fill="#17171A"/><circle cx="640" cy="225" r="1.3" fill="#17171A"/><circle cx="640" cy="300" r="1.3" fill="#17171A"/><circle cx="640" cy="375" r="1.3" fill="#17171A"/><circle cx="640" cy="450" r="1.3" fill="#17171A"/><circle cx="640" cy="525" r="1.3" fill="#17171A"/><circle cx="640" cy="600" r="1.3" fill="#17171A"/><circle cx="720" cy="75" r="1.3" fill="#17171A"/><circle cx="720" cy="150" r="1.3" fill="#17171A"/><circle cx="720" cy="225" r="1.3" fill="#17171A"/><circle cx="720" cy="300" r="1.3" fill="#17171A"/><circle cx="720" cy="375" r="1.3" fill="#17171A"/><circle cx="720" cy="450" r="1.3" fill="#17171A"/><circle cx="720" cy="525" r="1.3" fill="#17171A"/><circle cx="720" cy="600" r="1.3" fill="#17171A"/><circle cx="800" cy="75" r="1.3" fill="#17171A"/><circle cx="800" cy="150" r="1.3" fill="#17171A"/><circle cx="800" cy="225" r="1.3" fill="#17171A"/><circle cx="800" cy="300" r="1.3" fill="#17171A"/><circle cx="800" cy="375" r="1.3" fill="#17171A"/><circle cx="800" cy="450" r="1.3" fill="#17171A"/><circle cx="800" cy="525" r="1.3" fill="#17171A"/><circle cx="800" cy="600" r="1.3" fill="#17171A"/><circle cx="880" cy="75" r="1.3" fill="#17171A"/><circle cx="880" cy="150" r="1.3" fill="#17171A"/><circle cx="880" cy="225" r="1.3" fill="#17171A"/><circle cx="880" cy="300" r="1.3" fill="#17171A"/><circle cx="880" cy="375" r="1.3" fill="#17171A"/><circle cx="880" cy="450" r="1.3" fill="#17171A"/><circle cx="880" cy="525" r="1.3" fill="#17171A"/><circle cx="880" cy="600" r="1.3" fill="#17171A"/><circle cx="960" cy="75" r="1.3" fill="#17171A"/><circle cx="960" cy="150" r="1.3" fill="#17171A"/><circle cx="960" cy="225" r="1.3" fill="#17171A"/><circle cx="960" cy="300" r="1.3" fill="#17171A"/><circle cx="960" cy="375" r="1.3" fill="#17171A"/><circle cx="960" cy="450" r="1.3" fill="#17171A"/><circle cx="960" cy="525" r="1.3" fill="#17171A"/><circle cx="960" cy="600" r="1.3" fill="#17171A"/><circle cx="1040" cy="75" r="1.3" fill="#17171A"/><circle cx="1040" cy="150" r="1.3" fill="#17171A"/><circle cx="1040" cy="225" r="1.3" fill="#17171A"/><circle cx="1040" cy="300" r="1.3" fill="#17171A"/><circle cx="1040" cy="375" r="1.3" fill="#17171A"/><circle cx="1040" cy="450" r="1.3" fill="#17171A"/><circle cx="1040" cy="525" r="1.3" fill="#17171A"/><circle cx="1040" cy="600" r="1.3" fill="#17171A"/><circle cx="1120" cy="75" r="1.3" fill="#17171A"/><circle cx="1120" cy="150" r="1.3" fill="#17171A"/><circle cx="1120" cy="225" r="1.3" fill="#17171A"/><circle cx="1120" cy="300" r="1.3" fill="#17171A"/><circle cx="1120" cy="375" r="1.3" fill="#17171A"/><circle cx="1120" cy="450" r="1.3" fill="#17171A"/><circle cx="1120" cy="525" r="1.3" fill="#17171A"/><circle cx="1120" cy="600" r="1.3" fill="#17171A"/>
<g stroke="#1A1A1C" stroke-width="1">
  <line x1="0" y1="60" x2="1200" y2="60"/><line x1="0" y1="615" x2="1200" y2="615"/>
</g>

<line x1="140" y1="565" x2="1060" y2="565" stroke="#FFFFFF" stroke-width="2"/>
<g stroke="#1A1A1C" stroke-width="1"><line x1="140" y1="425" x2="1060" y2="425"/><line x1="140" y1="285" x2="1060" y2="285"/><line x1="140" y1="145" x2="1060" y2="145"/></g>
<rect x="200" y="435" width="64" height="130" fill="none" stroke="#6B4E9B" stroke-width="2"/><rect x="320" y="355" width="64" height="210" fill="#6B4E9B" opacity="0.85"/><rect x="440" y="400" width="64" height="165" fill="none" stroke="#6B4E9B" stroke-width="2"/><rect x="560" y="305" width="64" height="260" fill="#6B4E9B" opacity="0.85"/><rect x="680" y="330" width="64" height="235" fill="none" stroke="#6B4E9B" stroke-width="2"/><rect x="800" y="235" width="64" height="330" fill="#6B4E9B" opacity="0.85"/><rect x="920" y="165" width="64" height="400" fill="none" stroke="#6B4E9B" stroke-width="2"/>
<polyline points="232,400 352,330 472,372 592,262 712,292 832,190 952,128" fill="none" stroke="#FFFFFF" stroke-width="2.5"/>
<path d="M232 392 L240 400 L232 408 L224 400 Z" fill="#FFFFFF"/><path d="M352 322 L360 330 L352 338 L344 330 Z" fill="#FFFFFF"/><path d="M472 364 L480 372 L472 380 L464 372 Z" fill="#FFFFFF"/><path d="M592 254 L600 262 L592 270 L584 262 Z" fill="#FFFFFF"/><path d="M712 284 L720 292 L712 300 L704 292 Z" fill="#FFFFFF"/><path d="M832 182 L840 190 L832 198 L824 190 Z" fill="#FFFFFF"/><path d="M952 120 L960 128 L952 136 L944 128 Z" fill="#FFFFFF"/>
<g stroke="#6B4E9B" stroke-width="2">
  <path d="M40 40 h26 M40 40 v26" fill="none"/><path d="M1160 40 h-26 M1160 40 v26" fill="none"/>
  <path d="M40 635 h26 M40 635 v-26" fill="none"/><path d="M1160 635 h-26 M1160 635 v-26" fill="none"/>
</g>
<text x="1148" y="52" text-anchor="end" font-family="monospace" font-size="19" letter-spacing="4" fill="#6E6E73">KW · MARKETS</text>
<g transform="translate(52,623)">
  <path d="M0 -7 L7 0 L0 7 L-7 0 Z" fill="#6B4E9B" transform="translate(7,0)"/>
  <line x1="24" y1="0" x2="120" y2="0" stroke="#1A1A1C" stroke-width="1"/>
</g>
</svg>